# xmcd
#
# Track frame offsets: 
#        150
#        114003
#        210438
#
# Disc length: 3844 seconds
#
# Revision: 1
# Processed by: cddbd v1.5.2PL0 Copyright (c) Steve Scherf et al.
# Submitted via: ExactAudioCopy v1.1
#
DISCID=190f0203
DTITLE=Himalayan Singing Bowl Centre - Wa-Om (Singing Bowl Sound With 
DTITLE=Humming)
DYEAR=2010
DGENRE=New Age
TTITLE0=Body
TTITLE1=Mind
TTITLE2=Spirit
EXTD=YEAR: 2006
EXTT0=
EXTT1=
EXTT2=
PLAYORDER=
